<svg xmlns="http://www.w3.org/2000/svg" width="51" height="50" viewBox="0 0 51 50">
  <defs>
    <style>
      .cls-1 {
        fill: #fff;
        fill-rule: evenodd;
      }
    </style>
  </defs>
  <path id="pay" class="cls-1" d="M861.653,2359.63l-2.853-2.87a0.844,0.844,0,0,0-1.094-.1l-12.428,9.07-4.4-2.05,3.862-.43a0.835,0.835,0,0,0,.74-0.83v-3.6a0.835,0.835,0,0,0-.841-0.83h-4.207l-7.085-.72a0.868,0.868,0,0,0-.421.07l-4.83,2.05H819v1.66h9.273a0.774,0.774,0,0,0,.336-0.06l4.788-2.08,6.908,0.7h3.526v2.07l-3.113.38-4.519-.47a0.842,0.842,0,0,0-.892.61,0.828,0.828,0,0,0,.446.97l9.332,4.25a0.871,0.871,0,0,0,.841-0.08l12.235-8.9,1.683,1.73-14.061,12.16h-3.812l-13.421-4.94a0.965,0.965,0,0,0-.294-0.05H819V2369h9.113l13.412,4.95a0.982,0.982,0,0,0,.3.05h4.274a0.869,0.869,0,0,0,.556-0.21l14.961-12.94a0.169,0.169,0,0,1,.041-0.04A0.83,0.83,0,0,0,861.653,2359.63Zm2.238-14.79-4.443-4.57a0.849,0.849,0,0,0-.538-0.26l-9.088-.83h-3.467l0.169-2.5,3.29-.66,4.594,1.02a0.689,0.689,0,0,0,.286,0l4.468-.52-0.2-1.67-4.325.46-4.628-1.02a0.672,0.672,0,0,0-.345,0l-4.1.83a0.847,0.847,0,0,0-.681.77l-0.269,4.06a0.341,0.341,0,0,0,0,.05,0.837,0.837,0,0,0,.843.83h4.291l8.7,0.78,4.476,4.64a0.821,0.821,0,0,0,.606.26h5.958v-1.67h-5.6Zm-1.464-17.34a0.906,0.906,0,0,0-.32-0.15l-14.3-3.33a0.852,0.852,0,0,0-.69.16l-9.256,6.66,0.993,1.35,8.944-6.44,13.749,3.2,7.43,5.72,1.027-1.34Zm-13.665,1.61a0.831,0.831,0,0,0-.69,0l-5.049,2.5,0.758,1.48,4.712-2.32,3.853,1.56,0.623-1.55Zm-8.7,9.23-1.481-.22a0.988,0.988,0,0,1-1.068-.77,1.175,1.175,0,0,1,1.38-.79H839.5a1.251,1.251,0,0,1,1.38.79v0.22h1.682v-0.22c0-1.42-1.346-2.5-3.062-2.5h-0.606c-1.717,0-3.063,1.08-3.063,2.5a2.674,2.674,0,0,0,2.524,2.38l1.456,0.22a1.024,1.024,0,0,1,1.069.77,1.251,1.251,0,0,1-1.38.79h-0.606a1.251,1.251,0,0,1-1.38-.79v-0.22h-1.683v0.22c0,1.38,1.38,2.46,3.063,2.46H839.5c1.716,0,3.062-1.08,3.088-2.42A2.684,2.684,0,0,0,840.061,2338.34Zm5.806,1.55a6.668,6.668,0,0,1-3.862,5.17,6.759,6.759,0,0,1-8.927-3.27,6.639,6.639,0,0,1,3.307-8.84,6.759,6.759,0,0,1,8.927,3.27l1.523-.7a8.3,8.3,0,1,0,.715,4.59Zm-7.514-5.87h1.683v1.66h-1.683v-1.66Z" transform="translate(-819 -2324)"/>
</svg>
