<svg xmlns="http://www.w3.org/2000/svg" width="53" height="50" viewBox="0 0 53 50">
  <defs>
    <style>
      .cls-1 {
        fill: #fff;
        fill-rule: evenodd;
      }
    </style>
  </defs>
  <path id="support" class="cls-1" d="M537.079,2360.66v-0.91a7.962,7.962,0,0,0,.752-0.67,13.406,13.406,0,0,0,3.471-7.52,6.78,6.78,0,0,0,4.353-2.55c1.455-2.02,1.585-4.94.371-8.59a1.037,1.037,0,0,0-.4-0.52l-0.551-.36a13.268,13.268,0,0,0-3.251-9.02c-2.7-2.99-6.841-4.5-12.328-4.52-5.477,0-9.63,1.53-12.328,4.48a13.268,13.268,0,0,0-3.251,9.02l-0.551.36a1.044,1.044,0,0,0-.4.52c-1.213,3.67-1.083,6.57.372,8.59a6.8,6.8,0,0,0,4.353,2.58,13.391,13.391,0,0,0,3.481,7.53,8.976,8.976,0,0,0,.752.67v0.91c-3.842.73-19.18,4.28-18.919,14.35a0.994,0.994,0,0,0,1,.99h50.989a1,1,0,0,0,1-.99C556.258,2364.94,540.921,2361.39,537.079,2360.66Zm-19.993-11.31a4.382,4.382,0,0,1-2.126-1.54l0.05,0.01c-1-1.44-1.094-3.62-.2-6.5l0.732-.49a0.975,0.975,0,0,0,.442-0.92,11.536,11.536,0,0,1,2.728-8.12c2.267-2.53,5.909-3.8,10.784-3.82s8.516,1.29,10.824,3.82a11.536,11.536,0,0,1,2.728,8.12,0.975,0.975,0,0,0,.442.92l0.732,0.49c0.893,2.87.832,5.06-.2,6.5a4.413,4.413,0,0,1-2.136,1.54,6.532,6.532,0,0,0,1.635-4.94,4.642,4.642,0,0,0-1.615-2.77c-0.432-9.87-7.464-10.98-10.493-10.98a13.181,13.181,0,0,1-3.832,0c-3.009,0-10.031,1.09-10.493,10.98a4.628,4.628,0,0,0-1.635,2.76A6.524,6.524,0,0,0,517.086,2349.35Zm22.821-8.1a20.978,20.978,0,0,1-11.987-2.96,1.009,1.009,0,0,0-1.3.12c-2.006,2.13-5.668,2.62-7.433,2.73,0.542-6.98,4.835-8.5,8.446-8.5a9.841,9.841,0,0,1,1.715.13,0.909,0.909,0,0,0,.4,0,9.841,9.841,0,0,1,1.715-.13c3.581,0,7.895,1.56,8.4,8.6Zm-20.373,8.28,0.04,0.01a0.975,0.975,0,0,0-.251-0.66c-1.374-1.55-2.006-2.96-1.835-4.13a2.617,2.617,0,0,1,.912-1.67c1.325,0,6.019-.24,9.028-2.8a22.836,22.836,0,0,0,11.135,2.96,13.281,13.281,0,0,0,2.067-.11,2.617,2.617,0,0,1,.9,1.62c0.171,1.15-.461,2.58-1.835,4.13a0.975,0.975,0,0,0-.251.66v0.52l-5.838,3.08a2.922,2.922,0,0,0-4.084.11,2.813,2.813,0,0,0,.111,4.02,2.922,2.922,0,0,0,4.084-.11,2.826,2.826,0,0,0,.792-1.96c0-.09,0-0.18,0-0.26l4.6-2.43a10.807,10.807,0,0,1-2.688,5.21,9.015,9.015,0,0,1-6.651,2.45h-0.5a9.031,9.031,0,0,1-6.641-2.44C519.464,2354.62,519.534,2349.58,519.534,2349.53Zm12.97,5.67a0.893,0.893,0,1,1-.893-0.88A0.884,0.884,0,0,1,532.5,2355.2Zm-4.012,18.77H505.039c0.792-7.42,13.04-10.52,16.872-11.32v1.77c0,2.24,2.769,3.95,6.581,4.23v5.32Zm-4.574-9.55v-3.41a12.2,12.2,0,0,0,5.326,1.1h0.5a12.208,12.208,0,0,0,5.326-1.1v3.41c0,0.93-2.176,2.29-5.577,2.29S523.918,2365.35,523.918,2364.42Zm6.58,9.57v-5.35c3.812-.25,6.581-1.97,6.581-4.23v-1.73c3.862,0.79,16.05,3.89,16.872,11.31H530.5Z" transform="translate(-503 -2326)"/>
</svg>
